<svg width="10" height="18" viewBox="0 0 10 18" fill="none" xmlns="http://www.w3.org/2000/svg">
<path d="M0.25 8.94922C0.25 8.70508 0.337891 8.48047 0.523438 8.30469L8.26758 0.726562C8.43359 0.560547 8.64844 0.472656 8.90234 0.472656C9.41016 0.472656 9.80078 0.853516 9.80078 1.36133C9.80078 1.60547 9.69336 1.83008 9.53711 1.99609L2.42773 8.94922L9.53711 15.9023C9.69336 16.0684 9.80078 16.2832 9.80078 16.5371C9.80078 17.0449 9.41016 17.4258 8.90234 17.4258C8.64844 17.4258 8.43359 17.3379 8.26758 17.1621L0.523438 9.59375C0.337891 9.4082 0.25 9.19336 0.25 8.94922Z" fill="white"/>
</svg>
